<?xml version="1.0" standalone="no"?>
<!DOCTYPE svg PUBLIC "-//W3C//DTD SVG 20010904//EN"
 "http://www.w3.org/TR/2001/REC-SVG-20010904/DTD/svg10.dtd">
<svg version="1.0" xmlns="http://www.w3.org/2000/svg"
 width="445.000000pt" height="407.000000pt" viewBox="0 0 445.000000 407.000000"
 preserveAspectRatio="xMidYMid meet">

<g transform="translate(0.000000,407.000000) scale(0.100000,-0.100000)"
fill="#000000" stroke="none">
<path d="M0 2035 l0 -2035 43 0 c31 0 38 3 27 10 -10 6 -11 10 -2 10 6 0 12 9
12 19 0 10 6 21 14 24 13 5 23 90 25 211 0 15 5 34 10 40 6 7 12 25 15 42 3
16 14 47 25 69 10 21 16 45 14 53 -3 7 8 27 26 44 17 17 31 36 31 43 0 7 11
23 25 36 13 13 25 32 25 42 0 10 9 27 19 38 18 20 36 99 29 129 -2 7 7 18 19
25 21 11 18 38 -3 34 -22 -4 -34 2 -34 17 0 8 -4 13 -9 10 -4 -3 -14 13 -21
35 -8 22 -23 47 -34 55 -11 8 -17 14 -13 14 4 0 -8 14 -28 31 -20 18 -43 45
-51 60 -8 16 -24 37 -35 48 -12 11 -18 24 -15 29 3 6 2 12 -3 14 -5 1 -12 41
-14 88 -3 47 -8 93 -12 102 -7 18 20 114 35 123 28 18 199 11 285 -11 36 -10
57 -73 50 -156 -4 -40 -8 -75 -10 -78 -14 -23 -15 -102 -1 -134 15 -35 18 -37
53 -32 60 7 87 17 71 27 -10 6 -8 9 7 9 19 0 55 48 55 73 0 7 14 28 30 47 16
19 30 39 30 43 0 15 65 87 78 87 6 0 12 7 12 15 0 8 5 15 10 15 6 0 10 7 10
15 0 8 4 15 9 15 9 0 43 109 36 120 -2 4 0 24 6 45 6 21 8 63 4 97 -6 49 -11
61 -31 70 -19 9 -22 16 -17 36 4 17 2 23 -6 18 -7 -5 -11 2 -10 21 0 25 1 26
9 8 8 -18 9 -18 9 5 1 14 4 36 8 49 6 23 7 23 13 5 6 -15 9 -12 15 19 4 22 13
37 22 37 10 0 12 -6 8 -19 -3 -11 -1 -22 5 -26 6 -4 10 8 10 32 0 28 3 34 10
23 5 -8 10 -25 10 -36 0 -22 24 -39 41 -28 5 3 12 -2 15 -10 3 -9 14 -16 24
-16 25 0 35 -32 15 -46 -21 -15 -20 -209 1 -272 8 -24 12 -48 9 -53 -4 -5 0
-9 7 -9 8 0 22 -14 32 -30 14 -25 15 -34 6 -45 -7 -8 -11 -15 -9 -16 2 0 29
-6 59 -12 40 -9 56 -17 58 -31 2 -10 -1 -22 -8 -26 -8 -5 -2 -10 14 -14 15 -4
24 -11 21 -16 -5 -9 24 -15 49 -11 5 1 6 -7 3 -19 -4 -17 0 -20 25 -20 21 0
31 -6 35 -20 6 -24 53 -28 53 -5 0 8 -5 15 -12 15 -6 0 -4 6 6 13 15 11 19 32
24 105 2 50 9 90 14 89 5 -1 18 21 30 48 12 28 28 53 35 58 7 4 10 14 7 22 -4
10 0 15 14 15 13 0 31 17 52 50 18 27 36 48 40 45 11 -7 21 27 24 79 2 30 7
42 20 44 11 2 15 9 12 18 -3 8 1 17 8 20 8 3 17 17 21 32 5 20 8 23 16 11 7
-12 9 -11 9 4 0 10 -8 17 -19 17 -10 0 -25 10 -34 23 -19 29 -95 32 -115 5 -7
-10 -20 -18 -28 -18 -11 0 -13 -6 -9 -20 5 -14 2 -20 -9 -20 -9 0 -16 -4 -16
-10 0 -5 7 -10 15 -10 8 0 15 -5 15 -11 0 -6 -7 -9 -15 -5 -9 3 -15 0 -15 -9
0 -10 6 -12 18 -8 15 6 15 5 3 -10 -7 -9 -17 -14 -22 -11 -5 3 -9 0 -9 -5 0
-6 5 -11 11 -11 6 0 3 -7 -5 -16 -9 -8 -16 -19 -16 -24 0 -5 -12 -13 -27 -18
-23 -8 -24 -11 -8 -12 18 -1 18 -2 -3 -10 -14 -6 -22 -17 -20 -27 2 -12 -3
-17 -14 -15 -12 2 -18 -4 -18 -18 0 -11 -4 -20 -10 -20 -5 0 -10 -7 -10 -15 0
-12 -13 -15 -59 -15 -38 0 -61 -4 -64 -12 -4 -10 -8 -9 -16 2 -6 9 -6 19 0 26
6 7 1 20 -15 37 -20 21 -23 33 -19 64 6 49 -13 123 -32 123 -19 0 -20 36 -2
43 10 4 14 33 15 109 2 61 -1 98 -7 90 -6 -10 -10 -8 -14 10 -10 36 -8 50 6
45 6 -2 21 0 32 6 11 5 17 6 13 2 -12 -13 79 -55 150 -70 47 -10 71 -21 84
-37 15 -20 24 -23 85 -21 37 1 79 5 93 9 24 6 24 7 5 14 -19 8 -19 9 3 9 12 1
30 10 39 21 10 11 22 20 28 20 6 0 17 39 24 87 6 47 16 94 22 104 5 10 10 49
11 87 1 64 -1 71 -36 116 -20 26 -36 52 -36 57 0 5 -7 9 -15 9 -9 0 -20 12
-25 26 -6 14 -14 23 -19 20 -5 -4 -15 -1 -23 6 -22 21 -175 19 -258 -3 -49
-13 -77 -16 -85 -9 -7 5 -16 6 -21 2 -4 -4 -2 1 5 11 9 11 10 17 2 17 -15 0
-14 38 2 54 7 7 18 11 25 8 6 -2 13 1 13 7 1 6 2 16 3 22 2 17 40 28 48 15 4
-6 8 1 8 16 0 15 5 30 10 33 15 9 12 25 -5 25 -10 0 -15 10 -15 33 0 25 -6 36
-31 50 -33 18 -64 23 -55 8 7 -10 -16 -21 -44 -21 -24 0 -53 -29 -46 -46 3 -8
-2 -30 -11 -50 -13 -25 -22 -34 -35 -31 -10 3 -18 1 -18 -5 0 -12 -69 -1 -87
14 -7 5 -21 7 -33 3 -13 -4 -22 -1 -25 8 -11 26 -77 14 -114 -21 -18 -18 -37
-32 -43 -32 -5 0 -6 -4 -3 -10 8 -12 -1 -13 -23 -1 -14 7 -17 4 -18 -16 -2
-24 -11 -40 -18 -32 -13 14 -15 49 -3 60 7 8 16 22 20 32 3 9 11 17 16 17 5 0
12 7 15 16 3 8 2 12 -4 9 -6 -3 -10 -1 -10 5 0 6 7 13 15 16 8 4 15 13 15 21
0 8 11 29 25 47 14 18 25 38 25 44 0 7 4 12 8 12 4 0 20 27 36 60 20 41 37 63
57 72 16 7 29 17 29 23 0 5 10 15 23 21 62 31 112 60 115 66 2 3 28 4 58 1 37
-4 54 -2 54 6 0 6 11 11 25 11 14 0 28 6 31 14 3 8 16 17 30 20 13 4 24 10 24
14 0 5 9 17 19 29 10 11 26 34 35 52 9 17 21 29 26 26 5 -3 11 -1 15 5 3 5 25
18 48 29 23 10 62 39 87 65 24 25 48 46 53 46 4 0 34 21 65 46 53 43 106 71
125 66 4 -1 7 2 7 7 0 5 15 12 34 15 19 4 37 13 40 22 3 8 22 22 42 30 20 9
43 22 51 30 8 8 25 14 37 14 41 0 116 31 117 48 0 14 2 13 8 -3 8 -19 8 -19
18 0 6 11 22 20 35 20 49 3 97 18 114 36 9 10 13 19 8 20 -31 2 -49 10 -56 23
-5 9 -20 13 -46 11 -44 -3 -75 14 -61 35 16 27 10 40 -20 40 -35 0 -62 26 -34
33 10 3 -12 5 -49 6 -52 1 -68 -2 -68 -13 0 -7 -15 -19 -32 -27 -18 -7 -36
-18 -40 -24 -3 -5 -26 -10 -50 -9 -170 3 -241 7 -225 11 22 6 22 19 0 28 -17
6 -17 7 1 21 18 13 16 14 -25 15 -24 1 -58 0 -75 -1 -18 -1 -35 3 -39 9 -3 6
2 11 12 11 17 1 16 2 -2 16 -16 12 -36 14 -97 9 -52 -5 -78 -4 -78 3 0 6 19
13 43 15 l42 4 -47 1 c-27 1 -48 -2 -48 -8 0 -5 -7 -10 -16 -10 -8 0 -12 5 -9
10 4 7 -205 10 -619 10 l-626 0 0 -2035z m946 706 c-3 -5 -15 -7 -26 -4 -28 7
-25 13 6 13 14 0 23 -4 20 -9z m-316 -141 c0 -11 -4 -20 -10 -20 -5 0 -10 9
-10 20 0 11 5 20 10 20 6 0 10 -9 10 -20z m22 -22 c-9 -9 -12 -7 -12 12 0 19
3 21 12 12 9 -9 9 -15 0 -24z m298 -659 c0 -5 -4 -9 -10 -9 -5 0 -10 7 -10 16
0 8 5 12 10 9 6 -3 10 -10 10 -16z m687 -41 c-3 -7 -5 -2 -5 12 0 14 2 19 5
13 2 -7 2 -19 0 -25z m-410 -404 c-3 -3 -12 -4 -19 -1 -8 3 -5 6 6 6 11 1 17
-2 13 -5z m0 -84 c1 -22 -2 -40 -8 -40 -5 0 -9 18 -9 40 0 22 4 40 8 40 4 0 8
-18 9 -40z"/>
<path d="M1495 4030 c-3 -5 1 -10 9 -10 9 0 16 5 16 10 0 6 -4 10 -9 10 -6 0
-13 -4 -16 -10z"/>
<path d="M4433 3910 c-3 -11 -11 -20 -18 -20 -7 0 -15 -9 -18 -20 -3 -11 -12
-20 -21 -20 -9 0 -16 -8 -16 -20 0 -13 -5 -18 -15 -14 -11 5 -15 -1 -15 -21 0
-22 -3 -25 -20 -20 -11 3 -20 2 -20 -3 0 -14 -44 -62 -57 -62 -6 0 -13 -7 -17
-15 -3 -8 -14 -15 -25 -15 -11 0 -27 -14 -40 -35 -15 -25 -27 -35 -46 -35 -14
0 -25 -4 -25 -9 0 -17 -65 -31 -154 -32 -62 -1 -94 -6 -104 -15 -17 -18 -27
-18 -46 1 -14 14 -20 14 -58 1 -38 -13 -45 -12 -60 1 -13 11 -29 14 -60 10
-23 -3 -50 -1 -60 4 -12 7 -18 6 -18 -1 0 -8 -6 -8 -20 0 -11 6 -68 9 -142 7
-140 -4 -158 -2 -158 24 0 15 -5 17 -22 11 -34 -10 -64 -8 -81 7 -9 7 -20 10
-25 7 -9 -5 -26 29 -23 47 1 4 -8 7 -20 7 -12 0 -23 8 -26 20 -3 10 -14 22
-24 25 -10 4 -19 11 -19 16 0 5 -13 9 -29 9 -17 0 -32 4 -36 9 -8 14 -65 41
-85 41 -9 0 -20 4 -26 10 -10 10 -34 11 -114 8 -38 -1 -47 -6 -56 -27 -14 -33
4 -56 51 -65 21 -4 36 -14 40 -26 4 -11 10 -18 14 -15 16 9 58 -20 91 -63 19
-25 47 -49 62 -54 15 -6 28 -14 28 -19 0 -5 7 -9 16 -9 9 0 40 -23 69 -51 54
-52 96 -79 122 -79 8 0 11 -5 8 -10 -4 -6 -1 -17 5 -25 7 -9 15 -30 19 -48 5
-23 15 -36 38 -47 21 -9 33 -22 33 -35 0 -11 12 -31 25 -44 14 -13 25 -28 25
-33 0 -26 72 -75 150 -103 46 -16 95 -42 109 -56 60 -60 130 -147 150 -187 12
-24 33 -47 46 -52 14 -5 25 -15 25 -22 0 -7 24 -45 54 -84 41 -53 64 -98 91
-175 43 -121 50 -161 49 -284 -1 -111 -10 -150 -40 -180 -13 -13 -24 -33 -24
-45 0 -11 -7 -20 -15 -20 -8 0 -15 -9 -15 -20 0 -11 -7 -20 -15 -20 -7 0 -18
-6 -22 -13 -4 -8 -16 -17 -26 -20 -11 -4 -15 -12 -11 -18 4 -8 3 -9 -4 -5 -23
14 -32 -47 -33 -217 0 -95 0 -178 0 -185 1 -11 27 -42 118 -139 23 -24 63
-103 63 -124 0 -6 18 -49 40 -95 22 -46 40 -88 40 -94 0 -32 53 -90 107 -116
32 -16 64 -28 71 -26 7 2 11 -2 10 -9 -5 -19 20 -21 25 -2 3 10 4 -1 3 -24 -3
-48 0 -51 20 -25 11 14 13 15 14 1 0 -8 -5 -20 -12 -27 -9 -9 -7 -12 9 -12 16
0 20 5 16 20 -10 39 13 19 29 -25 17 -45 15 -92 -3 -64 -4 8 -11 11 -14 7 -8
-8 33 -77 69 -114 27 -29 32 -31 59 -21 25 8 32 7 44 -8 11 -16 13 252 13
1673 0 931 -3 1692 -6 1692 -3 0 -8 -9 -11 -20z"/>
<path d="M3448 3593 c7 -3 16 -2 19 1 4 3 -2 6 -13 5 -11 0 -14 -3 -6 -6z"/>
<path d="M2878 2625 c-3 -3 -32 -9 -64 -11 -32 -3 -64 -10 -71 -16 -7 -6 -13
-7 -13 -2 0 4 -10 -3 -22 -16 -13 -14 -22 -27 -22 -30 1 -3 -5 -14 -12 -25 -8
-11 -14 -28 -14 -37 0 -10 -4 -26 -9 -36 -24 -47 -41 -222 -22 -222 6 0 11 -7
11 -16 0 -20 92 -109 133 -128 29 -13 135 -36 176 -38 51 -3 97 16 147 58 30
26 54 50 54 55 0 5 10 9 23 9 17 0 27 9 38 33 8 17 24 36 37 42 17 8 22 19 24
52 1 24 2 51 2 61 1 9 -5 16 -11 15 -7 -2 -16 9 -19 24 -8 29 -40 62 -62 63
-7 0 -11 4 -8 8 7 11 -76 115 -111 139 -20 14 -48 20 -103 22 -41 1 -78 0 -82
-4z"/>
<path d="M3500 2520 c0 -5 5 -10 10 -10 6 0 10 -14 10 -31 l0 -31 -19 23 c-16
20 -21 21 -35 10 -9 -7 -16 -24 -16 -38 0 -13 -4 -22 -8 -19 -11 6 -89 -17
-91 -26 -6 -37 1 -138 9 -133 6 3 10 -5 10 -19 0 -14 5 -28 11 -32 6 -3 8 -17
5 -30 -4 -15 -1 -26 10 -32 10 -6 18 -30 23 -70 4 -33 13 -67 20 -75 9 -12 10
-25 2 -53 -12 -44 -8 -54 22 -54 17 0 19 2 7 10 -26 16 -4 21 26 5 16 -8 46
-15 66 -15 26 0 38 -5 41 -17 4 -16 6 -15 12 4 4 12 18 24 32 28 17 4 23 11
19 21 -3 8 0 17 7 20 8 3 12 25 11 62 0 31 3 64 7 72 12 26 19 124 10 139 -5
7 -14 10 -20 7 -9 -6 -16 7 -8 17 1 2 -5 12 -13 21 -16 20 -23 49 -9 40 5 -3
9 13 9 35 0 32 -4 41 -17 41 -15 0 -16 2 -3 10 13 8 12 12 -8 26 -16 11 -21
22 -17 35 4 11 2 19 -4 19 -6 0 -11 -7 -11 -15 0 -9 -6 -12 -15 -9 -8 4 -22 1
-30 -6 -12 -10 -16 -9 -21 4 -3 9 -3 23 0 32 4 9 1 23 -5 30 -13 16 -29 18
-29 4z m-10 -60 c0 -5 -4 -10 -10 -10 -5 0 -10 5 -10 10 0 6 5 10 10 10 6 0
10 -4 10 -10z m103 -547 c-13 -2 -35 -2 -50 0 -16 2 -5 4 22 4 28 0 40 -2 28
-4z"/>
<path d="M3271 2404 c0 -11 3 -14 6 -6 3 7 2 16 -1 19 -3 4 -6 -2 -5 -13z"/>
<path d="M3634 1886 c-4 -10 -2 -22 4 -28 8 -8 13 -7 18 6 4 10 2 22 -4 28 -8
8 -13 7 -18 -6z"/>
<path d="M2097 1759 c-32 -10 -67 -25 -76 -33 -10 -9 -31 -19 -49 -22 -17 -3
-33 -13 -36 -21 -3 -8 -10 -12 -15 -9 -10 6 -151 -140 -151 -156 0 -5 -9 -17
-20 -26 -19 -15 -21 -28 -20 -122 1 -58 2 -118 4 -135 2 -16 4 -60 4 -97 2
-66 16 -97 50 -109 6 -2 12 -26 13 -54 3 -45 1 -50 -21 -55 l-25 -6 25 -7 c14
-4 37 -7 52 -7 15 0 30 -4 33 -10 3 -5 21 -11 38 -11 18 -1 24 -3 15 -6 -19
-5 -24 -18 -10 -26 4 -3 26 -8 50 -12 37 -6 44 -4 48 12 5 17 20 18 231 18
172 0 227 3 230 13 3 7 20 11 41 11 l37 -2 -35 -7 c-36 -8 -32 -14 6 -11 12 1
35 -11 52 -28 29 -30 72 -42 72 -21 0 6 6 10 14 10 11 0 15 12 14 41 0 22 5
46 11 52 19 19 12 37 -14 37 -14 0 -35 5 -48 12 -12 6 -29 14 -37 18 -8 4 -14
15 -14 24 1 9 -3 16 -10 16 -6 1 0 10 13 20 13 12 21 26 18 35 -7 17 11 77 26
87 6 3 7 27 3 60 -4 29 -9 85 -11 123 -1 39 -6 94 -10 123 -8 53 -9 55 -102
130 -52 43 -104 81 -114 87 -10 5 -19 18 -19 27 0 10 -6 18 -13 18 -7 0 -20 9
-30 21 -15 17 -28 20 -90 18 -40 -1 -98 -10 -130 -20z"/>
<path d="M470 1045 c-8 -9 -8 -15 -2 -15 12 0 26 19 19 26 -2 2 -10 -2 -17
-11z"/>
<path d="M819 573 c-2 -19 3 -89 7 -105 11 -38 20 -15 16 37 -3 42 -1 55 9 55
11 0 13 -12 11 -45 -3 -28 0 -45 7 -45 6 0 11 7 11 15 0 11 12 15 45 15 33 0
45 -4 45 -15 0 -8 5 -15 10 -15 6 0 10 18 10 40 0 40 -15 55 -23 23 -4 -16 -5
-16 -6 -1 -1 12 -12 18 -38 21 -35 4 -35 4 5 3 24 -1 41 3 39 9 -4 12 -147 20
-148 8z"/>
<path d="M2496 383 c-4 -22 -8 -54 -8 -71 -1 -17 -5 -29 -10 -26 -4 3 -17 2
-28 -1 -24 -8 -28 -55 -5 -55 17 0 20 16 5 25 -20 12 1 24 32 18 27 -5 30 -4
25 11 -4 10 -1 19 8 22 19 8 19 42 1 85 l-14 32 -6 -40z"/>
<path d="M2170 385 c0 -9 -7 -18 -15 -21 -8 -4 -15 -13 -15 -20 0 -8 -6 -17
-14 -20 -22 -8 -26 -44 -9 -70 l15 -24 24 25 c13 14 24 33 24 41 0 9 7 22 15
30 13 14 13 19 0 45 -17 32 -25 37 -25 14z"/>
<path d="M3453 268 c-4 -7 -16 -13 -25 -13 -10 0 -19 -4 -20 -10 -1 -5 -9 -18
-17 -27 -19 -22 -21 -66 -5 -99 7 -15 11 -29 8 -31 -6 -6 23 -75 35 -82 5 -4
12 2 14 11 4 17 5 17 6 1 1 -16 13 -18 105 -18 91 0 105 2 109 18 5 14 3 97
-2 165 -1 13 -10 17 -37 17 -28 0 -35 3 -30 15 4 11 -5 16 -34 21 -28 5 -40
12 -40 23 0 12 -2 13 -9 3 -6 -10 -10 -10 -21 3 -15 18 -26 19 -37 3z m117
-54 c0 -8 -5 -12 -10 -9 -6 4 -8 11 -5 16 9 14 15 11 15 -7z"/>
<path d="M2248 108 c-32 -11 -37 -41 -12 -76 12 -18 23 -22 52 -18 32 3 72 34
72 55 -1 31 -67 54 -112 39z"/>
</g>
</svg>
